# xmcd
#
# Track frame offsets:
#	150
#	13386
#	29880
#	51710
#	64097
#	81436
#	96404
#	112795
#	140612
#	152847
#	164516
#	174479
#	191958
#	208866
#
# Disc length: 3297 seconds
#
# Revision: 0
# Processed by: cddbd v1.5.1PL2 Copyright (c) Steve Scherf et al.
# Submitted via: audiograbber 1.83.01
#
DISCID=db0cdf0e
DTITLE=Wayne County - At The Trucks
DYEAR=1900
DGENRE=
TTITLE0=(Intro) Man Made Woman
TTITLE1=Wonder Woman
TTITLE2=Queenage Baby
TTITLE3=Stick It In Me
TTITLE4=Stuck On You (Just Like Elmer's Glue)
TTITLE5=Got Time If You Got The Place
TTITLE6=Are You A Boy Or Are You A Girl?
TTITLE7=you Gotta Get Layed To Stay Healthy (And I'm The Healthiest Girl In Tow
TTITLE7=n)
TTITLE8=Man Enough To Be A Woman
TTITLE9=Putty
TTITLE10=Fucked By The Devil
TTITLE11=Prostitute With A Parachule
TTITLE12=Surrender Your Gender
TTITLE13=Max's Kansas City
EXTD=
EXTT0=
EXTT1=
EXTT2=
EXTT3=
EXTT4=
EXTT5=
EXTT6=
EXTT7=
EXTT8=
EXTT9=
EXTT10=
EXTT11=
EXTT12=
EXTT13=
PLAYORDER=
